<svg xmlns="http://www.w3.org/2000/svg" viewBox="0 0 48 48"><defs><style>.cls-1{isolation:isolate;}.cls-2{fill:#f7a550;}.cls-3{fill:#e27c20;}.cls-4{fill:#f3cd56;}.cls-5{fill:#cf8bdf;}.cls-6{fill:#51b9f1;}.cls-7{fill:none;}.cls-8{fill:#e7d4c5;opacity:0.46;mix-blend-mode:multiply;}</style></defs><title>Prancheta 4</title><g class="cls-1"><g id="Camada_1" data-name="Camada 1"><rect class="cls-2" width="48" height="48"/><polygon class="cls-3" points="48 19.99 37.49 11.47 12.12 35.13 29.11 48 48 48 48 19.99"/><rect class="cls-4" x="22.51" y="38.12" width="3.48" height="9.88"/><path class="cls-5" d="M23.81,23.6l-.3-.07-.09,0-.19-.06h0L23,23.38h0l-.13,0-.15,0-.28-.1-.34-.13-.36-.16-.19-.08-.4-.19-.53-.28-.28-.16L20,22l-.22-.14c-.08,0-.15-.1-.23-.15l-.23-.15c-.24-.16-.47-.33-.71-.52l-.24-.19-.23-.19h0l-.23-.21-.24-.22c-.13-.11-.26-.24-.38-.36l-.24-.25-.24-.25-.48-.54-.23-.28-.2-.26c-.09-.11-.17-.23-.26-.35l-.16-.23a4.38,4.38,0,0,1-.28-.42A4,4,0,0,1,15,17q-.21-.34-.42-.72l-.2-.37c-.07-.13-.13-.26-.19-.39s-.13-.27-.19-.41a3.13,3.13,0,0,1-.15-.32s0,0,0,0l-.07-.18a1.78,1.78,0,0,1-.12-.29c-.06-.14-.12-.29-.17-.44s-.11-.3-.16-.45-.12-.36-.18-.54-.18-.6-.26-.91c-.13-.5-.26-1-.36-1.57a17.42,17.42,0,0,1,7.69-4.2c-3,11.46,3.13,17,3.13,17h0l.07.05.12.11Z"/><path class="cls-5" d="M37.55,11.69C26.88,11.53,24.38,23,24.38,23s0,.13-.07.36a1.45,1.45,0,0,1,0-.16s-3.53-8.52,4.84-16.89A17.3,17.3,0,0,1,37.55,11.69Z"/><path class="cls-5" d="M41.72,23a17.22,17.22,0,0,1-.78,5.15c-5-7.44-13.93-5.38-16.22-4.69,1-1,8.37-8.16,16.76-3.39A17.64,17.64,0,0,1,41.72,23Z"/><path class="cls-5" d="M28,39.92c3.14-7.44-1.28-13.3-3.52-15.64l-.1-.52h0l0-.05h0c2.45.47,11.12,3.08,11.51,12.17A17.3,17.3,0,0,1,28,39.92Z"/><path class="cls-5" d="M19,39.44a17.35,17.35,0,0,1-7.73-5.18C20.56,33,23.37,26.59,24.13,24v0s0,0,.05-.05h0l.31.32C25,27.05,25.54,34.4,19,39.44Z"/><path class="cls-6" d="M28,39.92c-.46.1-.93.18-1.39.24a16.82,16.82,0,0,1-2.26.15A17.44,17.44,0,0,1,19,39.44c6.59-5,6-12.39,5.56-15.16C26.75,26.62,31.17,32.48,28,39.92Z"/><path class="cls-5" d="M24.16,23.92a.24.24,0,0,0,0,.08c-1.67,1.5-7.65,5.9-16.81,2.14a17.43,17.43,0,0,1,.34-7.81c7,8,14.79,5.86,16.25,5.36h0Z"/><path class="cls-6" d="M24.14,24v0c-.76,2.56-3.57,8.94-12.91,10.23a17.29,17.29,0,0,1-3.89-8.12C16.49,29.9,22.47,25.5,24.14,24Z"/><path class="cls-6" d="M24.27,23.17a1.45,1.45,0,0,0,0,.16c0,.07,0,.16-.06.25l-.08,0-.09,0h0l-.26,0,.1.09c-1.46.5-9.23,2.61-16.25-5.36a17.26,17.26,0,0,1,4.84-8c.1.54.23,1.07.36,1.57.08.31.17.61.26.91s.11.36.18.54.1.3.16.45.11.3.17.44a1.78,1.78,0,0,0,.12.29l.07.18s0,0,0,0a3.13,3.13,0,0,0,.15.32c.06.14.12.27.19.41s.12.26.19.39l.2.37q.21.38.42.72a4,4,0,0,0,.22.34,4.38,4.38,0,0,0,.28.42l.16.23c.09.12.17.24.26.35l.2.26.23.28.48.54.24.25.24.25c.12.12.25.25.38.36l.24.22.23.21h0l.23.19.24.19c.24.19.47.36.71.52l.23.15c.08.05.15.11.23.15L20,22l.27.16.28.16.53.28.4.19.19.08.36.16.34.13.28.1.15,0,.13,0h0l.22.07h0l.19.06.09,0,.3.07-.28-.26-.12-.11-.07-.05h0s-6.12-5.58-3.13-17a17.62,17.62,0,0,1,8.91.15C20.74,14.65,24.27,23.17,24.27,23.17Z"/><path class="cls-6" d="M41.48,20c-8.39-4.77-15.81,2.42-16.76,3.39l-.36.11c0-.08,0-.15-.05-.21.05-.23.07-.36.07-.36s2.5-11.44,13.17-11.28A17.27,17.27,0,0,1,41.48,20Z"/><path class="cls-6" d="M40.94,28.12a17.44,17.44,0,0,1-5,7.75c-.39-9.09-9.06-11.7-11.51-12.17l.16-.16.1-.11C27,22.74,35.93,20.68,40.94,28.12Z"/><path class="cls-7" d="M24.41,23.75h0l.1.52L24.2,24h0s0,0-.05.05a.24.24,0,0,1,0-.08l-.24-.22h0l-.1-.09.26,0h0l.09,0,.08,0c0-.09,0-.18.06-.25s0,.13.05.21l.36-.11-.1.11-.16.16h0Z"/><path class="cls-7" d="M24.16,23.92c0-.09.05-.17.07-.25s0-.06,0-.09"/><path class="cls-7" d="M24.41,23.75l-.22.2"/><path class="cls-7" d="M7.33,26.14l-.1,0"/><path class="cls-7" d="M41.15,28.43l-.21-.31"/><path class="cls-7" d="M7.67,18.33l-.07-.07"/><path class="cls-7" d="M24.36,23.54l-.11,0"/><path class="cls-7" d="M24.08,23.64l-.16.05"/><path class="cls-7" d="M24.45,23.7h-.06l-.16,0-.15,0"/><path class="cls-7" d="M24.19,24l0,0"/><path class="cls-7" d="M24.41,23.75s0,0,0-.06l0-.15"/><path class="cls-8" d="M28.23,39.72A17.36,17.36,0,0,1,10.78,33.6a17.37,17.37,0,0,1-2.42-4.12,16.24,16.24,0,0,1-.57-1.61c1.32,2,2.73,4.9,4.73,6.26,7.59,5.18,17.76,5.28,23.5-2.78,5.57-7.85,2.77-17-4.37-22.44-2.58-2-7.4-3-10.62-3.11A17.33,17.33,0,0,1,41.11,18.29c.12.46.23.92.31,1.38a17.14,17.14,0,0,1-.69,8.89A17.29,17.29,0,0,1,31,38.83,16.85,16.85,0,0,1,28.23,39.72Z"/></g></g></svg>