<svg xmlns="http://www.w3.org/2000/svg" viewBox="0 0 48 48"><defs><style>.cls-1{isolation:isolate;}.cls-2{fill:#f7a550;}.cls-3{fill:#fff;}.cls-4{fill:none;}.cls-5{fill:#e7d4c5;opacity:0.46;mix-blend-mode:multiply;}</style></defs><title>48logoPrancheta 5 cópia 2</title><g class="cls-1"><g id="Camada_2" data-name="Camada 2"><circle class="cls-2" cx="24" cy="24" r="24"/><rect class="cls-3" x="21.99" y="34.99" width="3.63" height="16.06"/><path class="cls-2" d="M23.59,23.46l-.22-.05-.07,0-.14,0h0L23,23.29h0l-.11,0-.11,0-.21-.08-.25-.1L22,22.93l-.15-.07-.3-.14-.39-.21L21,22.39a1.32,1.32,0,0,1-.2-.12l-.18-.1-.17-.11-.17-.12c-.18-.12-.35-.25-.53-.39l-.18-.14-.18-.15h0l-.18-.15L19,20.94l-.28-.27-.18-.18a1.7,1.7,0,0,0-.19-.19c-.12-.13-.23-.27-.35-.41l-.18-.21-.14-.19-.2-.27-.12-.17a2.82,2.82,0,0,1-.21-.31c-.06-.09-.12-.17-.17-.26s-.21-.35-.31-.54l-.15-.28-.15-.3c-.05-.1-.1-.2-.14-.3a1.89,1.89,0,0,1-.11-.25v0L16,16.64,16,16.43l-.13-.33-.12-.34c0-.14-.09-.27-.13-.41s-.14-.45-.2-.68c-.1-.38-.19-.77-.27-1.18a12.9,12.9,0,0,1,5.78-3.15c-2.24,8.6,2.35,12.8,2.35,12.8h0l.05,0,.09.08Z"/><path class="cls-2" d="M33.91,14.51C25.9,14.39,24,23,24,23a2.67,2.67,0,0,1-.05.28l0-.13s-2.65-6.4,3.65-12.68A13,13,0,0,1,33.91,14.51Z"/><path class="cls-2" d="M37.05,23a13.11,13.11,0,0,1-.59,3.88C32.7,21.26,26,22.81,24.27,23.33c.72-.73,6.3-6.13,12.59-2.55A12.33,12.33,0,0,1,37.05,23Z"/><path class="cls-2" d="M26.76,35.72c2.36-5.59-1-10-2.64-11.75,0-.15-.06-.28-.08-.39h0l0,0h0c1.84.35,8.36,2.31,8.65,9.14A13,13,0,0,1,26.76,35.72Z"/><path class="cls-2" d="M19.94,35.36a13,13,0,0,1-5.81-3.89c7-1,9.13-5.77,9.7-7.69v0l0,0h0c.08.07.15.15.24.24A11.56,11.56,0,0,1,19.94,35.36Z"/><path class="cls-3" d="M26.76,35.72a8.85,8.85,0,0,1-1.05.18A13.45,13.45,0,0,1,24,36a13.15,13.15,0,0,1-4.08-.65A11.56,11.56,0,0,0,24.12,24C25.8,25.73,29.12,30.13,26.76,35.72Z"/><path class="cls-2" d="M23.85,23.7s0,0,0,.06c-1.26,1.12-5.75,4.43-12.63,1.61a13.11,13.11,0,0,1,.25-5.87c5.28,6,11.12,4.4,12.22,4h0Z"/><path class="cls-3" d="M23.84,23.76v0c-.57,1.92-2.68,6.72-9.7,7.69a13.1,13.1,0,0,1-2.92-6.1C18.09,28.19,22.58,24.88,23.84,23.76Z"/><path class="cls-3" d="M23.93,23.13l0,.13s0,.11,0,.18l-.06,0-.06,0h0l-.19,0,.08.07c-1.1.37-6.94,2-12.22-4a13.1,13.1,0,0,1,3.64-6c.08.41.17.8.27,1.18.06.23.13.46.2.68s.08.27.13.41l.12.34.13.33.09.21.06.14v0a1.89,1.89,0,0,0,.11.25c0,.1.09.2.14.3l.15.3.15.28c.1.19.21.37.31.54s.11.17.17.26a2.82,2.82,0,0,0,.21.31l.12.17.2.27.14.19.18.21c.12.14.23.28.35.41a1.7,1.7,0,0,1,.19.19l.18.18.28.27.18.17.18.15h0l.18.15.18.14c.18.14.35.27.53.39l.17.12.17.11.18.1a1.32,1.32,0,0,0,.2.12l.21.12.39.21.3.14.15.07.27.11.25.1.21.08.11,0,.11,0h0l.16.06h0l.14,0,.07,0,.22.05-.21-.2-.09-.08-.05,0h0s-4.59-4.2-2.35-12.8a13.17,13.17,0,0,1,6.7.11C21.28,16.73,23.93,23.13,23.93,23.13Z"/><path class="cls-3" d="M36.86,20.78C30.57,17.2,25,22.6,24.27,23.33l-.27.08q0-.09,0-.15A2.67,2.67,0,0,0,24,23s1.88-8.59,9.89-8.47A12.86,12.86,0,0,1,36.86,20.78Z"/><path class="cls-3" d="M36.46,26.86a13.11,13.11,0,0,1-3.73,5.82c-.29-6.83-6.81-8.79-8.65-9.14l.12-.13.07-.08C26,22.81,32.7,21.26,36.46,26.86Z"/><path class="cls-4" d="M24,23.57h0c0,.11.05.24.08.39-.09-.09-.16-.17-.24-.24h0l0,0s0,0,0-.06l-.17-.17h0l-.08-.07.19,0h0l.06,0,.06,0c0-.07,0-.13,0-.18s0,.09,0,.15l.27-.08-.07.08-.12.13h0Z"/><path class="cls-4" d="M23.85,23.7a1.8,1.8,0,0,0,0-.19.14.14,0,0,0,0-.07"/><path class="cls-4" d="M24,23.57l-.16.15"/><path class="cls-4" d="M11.21,25.37l-.07,0"/><path class="cls-4" d="M36.62,27.09a1.88,1.88,0,0,0-.16-.23"/><path class="cls-4" d="M11.46,19.5l-.05-.05"/><path class="cls-4" d="M24,23.41l-.08,0"/><path class="cls-4" d="M23.79,23.49l-.11,0"/><path class="cls-4" d="M24.08,23.54h0l-.13,0-.1,0"/><path class="cls-4" d="M23.88,23.72l0,0"/><path class="cls-4" d="M24,23.57s0,0,0,0l0-.12"/><path class="cls-5" d="M26.92,35.57A12.91,12.91,0,0,1,20,35.26a13,13,0,0,1-8-7.38c-.16-.4-.3-.81-.42-1.21,1,1.5,2,3.67,3.55,4.7,5.7,3.89,13.35,4,17.65-2.09,4.19-5.9,2.08-12.74-3.28-16.86-1.93-1.48-5.56-2.27-8-2.34A13,13,0,0,1,36,17.86a13.9,13.9,0,0,1,.55,1.61c.09.34.17.69.23,1a13,13,0,0,1-.51,6.68,13.14,13.14,0,0,1-3.94,5.69,13.32,13.32,0,0,1-3.35,2A13.1,13.1,0,0,1,26.92,35.57Z"/></g></g></svg>